<svg id="Layer_1" data-name="Layer 1" xmlns="http://www.w3.org/2000/svg" width="732" height="183.67" viewBox="0 0 732 183.67"><defs><style>.cls-1{fill:#0d1221;}.cls-2{fill:#e4413d;}.cls-3{fill:#f59d21;}.cls-4{fill:#1d91d0;}</style></defs><title>trivago_logo_freelogovectors.net</title><polygon class="cls-1" points="390.75 59.1 417.94 59.1 438.6 114.83 438.94 114.83 458.08 59.1 483.42 59.1 451.19 141.02 424.5 141.02 390.75 59.1"/><path class="cls-1" d="M301.1,362.41H276.26v27.42a46.32,46.32,0,0,0,.52,6.13,11.86,11.86,0,0,0,1.74,4.78,8.31,8.31,0,0,0,4,3.1,19.28,19.28,0,0,0,7.13,1.09,53.52,53.52,0,0,0,5.91-.41,11.2,11.2,0,0,0,5.53-1.93v21a50.12,50.12,0,0,1-9.68,2c-3.32.33-6.62.5-9.82.5a58,58,0,0,1-12.94-1.34,30.78,30.78,0,0,1-10.36-4.28,20.71,20.71,0,0,1-7-7.64,24.08,24.08,0,0,1-2.57-11.42v-39H231.27V342.26h17.46V318.09h27.53v24.17H301.1Z" transform="translate(-9 -283.17)"/><path class="cls-1" d="M307.82,342.26h25.51v13.43h.25a28.64,28.64,0,0,1,9.57-11.39c3.69-2.52,8.34-3.81,13.94-3.81,1.45,0,2.94,0,4.4.15a25.06,25.06,0,0,1,4.07.66v23a45.38,45.38,0,0,0-5.33-1.26,35.59,35.59,0,0,0-5.47-.42c-4.81,0-8.63.68-11.43,2a15.22,15.22,0,0,0-6.47,5.62,21.43,21.43,0,0,0-2.89,8.64,84.25,84.25,0,0,0-.64,11.09v34.18H307.82V342.26Z" transform="translate(-9 -283.17)"/><path class="cls-1" d="M371.61,342.26h24.84v81.92H371.61V342.26Zm-1-21.54a13.4,13.4,0,1,1,3.92,9.45,12.92,12.92,0,0,1-3.92-9.45" transform="translate(-9 -283.17)"/><path class="cls-1" d="M535.15,388.59c-1.9,0-4.28,0-7.14.12a35.93,35.93,0,0,0-8.23,1.36,18.37,18.37,0,0,0-6.71,3.48,8.14,8.14,0,0,0-2.77,6.54,7.17,7.17,0,0,0,3.86,6.7,16.19,16.19,0,0,0,8.06,2.18,25.28,25.28,0,0,0,7.13-1,21,21,0,0,0,6.13-2.86,13.9,13.9,0,0,0,4.35-4.7,13.55,13.55,0,0,0,1.64-6.71v-5.1Zm6.33,25.52H541a25.47,25.47,0,0,1-11.15,9.26,39.16,39.16,0,0,1-25.7,1.16,27.62,27.62,0,0,1-9.31-4.8,23,23,0,0,1-6.38-7.9,23.92,23.92,0,0,1-2.35-10.92,25.06,25.06,0,0,1,2.6-11.92,23.28,23.28,0,0,1,7-8.06A34.93,34.93,0,0,1,505.94,376a73.36,73.36,0,0,1,11.83-2.61,114.88,114.88,0,0,1,12.26-1c4.08-.11,7.85-.17,11.33-.17a13.1,13.1,0,0,0-4.78-10.66,17.26,17.26,0,0,0-11.33-3.94,24.78,24.78,0,0,0-11.33,2.59,30.93,30.93,0,0,0-9.15,7.14l-13.44-13.77a46.48,46.48,0,0,1,16.46-9.82,58.63,58.63,0,0,1,19.48-3.27q11.07,0,18.21,2.77a26.61,26.61,0,0,1,11.42,8.14,31.28,31.28,0,0,1,5.85,13.18,87.59,87.59,0,0,1,1.57,18v41.58H541.49V414.11Z" transform="translate(-9 -283.17)"/><path class="cls-1" d="M681.75,383.28c0,6.15,1.61,11.14,4.79,14.94s7.67,5.71,13.45,5.71,10.24-1.9,13.44-5.71,4.78-8.79,4.78-14.94-1.6-11.13-4.78-14.94-7.67-5.71-13.44-5.71-10.26,1.91-13.45,5.71-4.79,8.78-4.79,14.94m-22.78,0a46.79,46.79,0,0,1,3.19-17.63,40.85,40.85,0,0,1,8.74-13.51A38,38,0,0,1,684,343.49a44,44,0,0,1,32,0,38.17,38.17,0,0,1,13.06,8.65,40.67,40.67,0,0,1,8.73,13.51,50.17,50.17,0,0,1,0,35.26,40.46,40.46,0,0,1-8.73,13.51A37.86,37.86,0,0,1,716,423.06a43.89,43.89,0,0,1-32,0,37.82,37.82,0,0,1-13.06-8.64,40.33,40.33,0,0,1-8.74-13.51A46.83,46.83,0,0,1,659,383.28" transform="translate(-9 -283.17)"/><path class="cls-1" d="M632.34,342.19v11H632a15.76,15.76,0,0,0-2.85-3.06,33.21,33.21,0,0,0-6.47-4.31,35.47,35.47,0,0,0-8.06-3.19,42.49,42.49,0,0,0-10.41-1.43,33.88,33.88,0,0,0-15.77,4,30.37,30.37,0,0,0-11.06,8.95,36.67,36.67,0,0,0-6.22,13.32,66.07,66.07,0,0,0-1.77,16.69,63.16,63.16,0,0,0,2.43,17.31,36,36,0,0,0,7.13,13.75c3.44,3.95,7,6,11.92,8.07A39.66,39.66,0,0,0,607.09,426,33.21,33.21,0,0,0,619,423.47a24.15,24.15,0,0,0,10.37-7.85h.3v7.93c0,5.84-1.28,10.64-4.92,14.4s-9,5.79-16.73,5.79c-5.16,0-8.4.1-13.65-1.32-4.57-1.23-10.31-3.4-14.57-6.53l-12.25,18a56.65,56.65,0,0,0,19.52,9.51,83.33,83.33,0,0,0,21.5,2.44c15.94,0,27.23-4,35-12s11-19.79,11-35.29V342.19Zm-6.28,56.14q-4.78,5.73-13.48,5.72t-13.49-5.72q-4.79-5.71-4.79-15t4.79-15q4.81-5.73,13.49-5.73t13.48,5.73q4.82,5.72,4.81,15T626.06,398.33Z" transform="translate(-9 -283.17)"/><path class="cls-2" d="M78.75,439C6.29,402.74,17.13,337,36,308a94.31,94.31,0,0,0-14.12,17.25v0h0C16.41,333.87,4.12,357,11.08,386.54s27.5,49.18,43.93,60c26.43,17.39,52.11,21.27,70.2,20.12a68.25,68.25,0,0,0,53.67-31.47,76.11,76.11,0,0,0,8.72-19.63C185.05,419.49,150.52,474.9,78.75,439Z" transform="translate(-9 -283.17)"/><path class="cls-3" d="M127.93,437.49c-1.24.15-2.55.25-3.89.29-15.18.23-31.47-5-42.88-10.92-8.63-4.5-20-12.1-28.57-23.54C9,348,65.19,291.05,80.6,284.37a82.17,82.17,0,0,0-10.19,2.43C61,289.69,47.86,296.54,36,308c-1.86,2.37-3.67,4.9-5.36,7.55v0h0C25.3,324,13.32,346.51,20.1,375.28s26.81,47.93,42.82,58.47c25.77,16.95,50.79,20.73,68.42,19.61a66.47,66.47,0,0,0,52.3-30.67,70.25,70.25,0,0,0,4-7.13c.27-1,.39-1.55.39-1.55.61-2.41,1.44-6.8,1.66-8.24a92.54,92.54,0,0,0-1.16-32.6C186,393.65,169.71,433.83,127.93,437.49ZM46.25,393l0-.09,0,.1Zm77.84,44.75h0Z" transform="translate(-9 -283.17)"/><path class="cls-4" d="M175,338.24c-1.56-2.81-4.07-6.54-4.22-6.75-2.12-3.12-4.37-6.13-6.18-8.33a13.07,13.07,0,0,0-20.32,16.45,92.08,92.08,0,0,1,11.53,19.31,87.69,87.69,0,0,1,6.46,21.35c1.4,8.46,2.46,25.89-6.91,39.68-3,4.39-10.08,14.29-24.59,17.09l-.24,0c-.85.17-1.74.3-2.64.41,1.49,0,2.95-.07,4.34-.16a58.63,58.63,0,0,0,46.13-27.05,63.16,63.16,0,0,0,7.83-18.2c.52-2.07,1.23-5.84,1.43-7.09a69.18,69.18,0,0,0,.81-11.82,118.15,118.15,0,0,0-3.07-11.77A128.84,128.84,0,0,0,175,338.24Z" transform="translate(-9 -283.17)"/><path class="cls-4" d="M46.27,393.06a60.06,60.06,0,0,1-4.71-13.3c-1.48-6.55-2.44-23.46,7.48-37.84C59.71,326.46,72,316.57,100.4,316.21c9.07-.12,16.17-4.84,17.14-14s-5-17.07-14.91-18.43a64.75,64.75,0,0,0-10.24-.55h0a72.76,72.76,0,0,0-11.76,1.19,82.45,82.45,0,0,0-37.18,31.45h0c-4.67,7.37-15.23,27.27-9.25,52.64a80.35,80.35,0,0,0,18.43,34.85A63.76,63.76,0,0,1,46.27,393.06Zm0,0,0-.09,0,.1Z" transform="translate(-9 -283.17)"/></svg>